<mxfile host="app.diagrams.net" agent="Mozilla/5.0 (Windows NT 10.0; Win64; x64) AppleWebKit/537.36 (KHTML, like Gecko) Chrome/141.0.0.0 Safari/537.36" version="28.2.7">
  <diagram name="Seite-1" id="uO2UrZivr9gvkJktDG5o">
    <mxGraphModel dx="2951" dy="2793" grid="1" gridSize="10" guides="1" tooltips="1" connect="1" arrows="1" fold="1" page="1" pageScale="1" pageWidth="827" pageHeight="1169" math="0" shadow="0">
      <root>
        <mxCell id="0" />
        <mxCell id="1" parent="0" />
        <mxCell id="SVEBSsm7RerCGnV4KXjt-40" value="" style="rounded=0;whiteSpace=wrap;html=1;fillColor=#fff2cc;strokeColor=#d6b656;" vertex="1" parent="1">
          <mxGeometry x="120" width="680" height="280" as="geometry" />
        </mxCell>
        <mxCell id="SVEBSsm7RerCGnV4KXjt-41" value="" style="group" vertex="1" connectable="0" parent="1">
          <mxGeometry x="160" y="40" width="440" height="40" as="geometry" />
        </mxCell>
        <mxCell id="SVEBSsm7RerCGnV4KXjt-42" value="" style="rounded=0;whiteSpace=wrap;html=1;fillColor=#dae8fc;strokeColor=#6c8ebf;" vertex="1" parent="SVEBSsm7RerCGnV4KXjt-41">
          <mxGeometry width="439.99999999999994" height="40" as="geometry" />
        </mxCell>
        <mxCell id="SVEBSsm7RerCGnV4KXjt-17" style="edgeStyle=orthogonalEdgeStyle;rounded=0;orthogonalLoop=1;jettySize=auto;html=1;exitX=1;exitY=0.5;exitDx=0;exitDy=0;entryX=0;entryY=0.5;entryDx=0;entryDy=0;" edge="1" parent="1" source="SVEBSsm7RerCGnV4KXjt-1" target="SVEBSsm7RerCGnV4KXjt-8">
          <mxGeometry relative="1" as="geometry" />
        </mxCell>
        <mxCell id="SVEBSsm7RerCGnV4KXjt-6" value="" style="endArrow=classic;html=1;rounded=0;" edge="1" parent="1">
          <mxGeometry width="50" height="50" relative="1" as="geometry">
            <mxPoint x="219.76" y="80" as="sourcePoint" />
            <mxPoint x="219.76" y="120" as="targetPoint" />
          </mxGeometry>
        </mxCell>
        <mxCell id="SVEBSsm7RerCGnV4KXjt-7" value="f" style="text;html=1;whiteSpace=wrap;strokeColor=none;fillColor=none;align=center;verticalAlign=middle;rounded=0;" vertex="1" parent="1">
          <mxGeometry x="190" y="50" width="60" height="30" as="geometry" />
        </mxCell>
        <mxCell id="SVEBSsm7RerCGnV4KXjt-18" style="edgeStyle=orthogonalEdgeStyle;rounded=0;orthogonalLoop=1;jettySize=auto;html=1;exitX=1;exitY=0.5;exitDx=0;exitDy=0;" edge="1" parent="1" source="SVEBSsm7RerCGnV4KXjt-8">
          <mxGeometry relative="1" as="geometry">
            <mxPoint x="480" y="159.95238095238096" as="targetPoint" />
          </mxGeometry>
        </mxCell>
        <mxCell id="SVEBSsm7RerCGnV4KXjt-15" value="" style="endArrow=classic;html=1;rounded=0;" edge="1" parent="1">
          <mxGeometry width="50" height="50" relative="1" as="geometry">
            <mxPoint x="379.76" y="80" as="sourcePoint" />
            <mxPoint x="379.76" y="120" as="targetPoint" />
          </mxGeometry>
        </mxCell>
        <mxCell id="SVEBSsm7RerCGnV4KXjt-16" value="f&lt;sub&gt;c&lt;/sub&gt;" style="text;html=1;whiteSpace=wrap;strokeColor=none;fillColor=none;align=center;verticalAlign=middle;rounded=0;" vertex="1" parent="1">
          <mxGeometry x="350" y="50" width="60" height="30" as="geometry" />
        </mxCell>
        <mxCell id="SVEBSsm7RerCGnV4KXjt-24" value="" style="group" vertex="1" connectable="0" parent="1">
          <mxGeometry x="480" y="120" width="120" height="80" as="geometry" />
        </mxCell>
        <mxCell id="SVEBSsm7RerCGnV4KXjt-19" value="" style="rounded=0;whiteSpace=wrap;html=1;fillColor=#dae8fc;strokeColor=#6c8ebf;" vertex="1" parent="SVEBSsm7RerCGnV4KXjt-24">
          <mxGeometry width="120" height="80" as="geometry" />
        </mxCell>
        <mxCell id="SVEBSsm7RerCGnV4KXjt-20" value="" style="endArrow=none;html=1;rounded=0;strokeWidth=4;curved=0;" edge="1" parent="SVEBSsm7RerCGnV4KXjt-24">
          <mxGeometry width="50" height="50" relative="1" as="geometry">
            <mxPoint x="20" y="60" as="sourcePoint" />
            <mxPoint x="30" y="20" as="targetPoint" />
          </mxGeometry>
        </mxCell>
        <mxCell id="SVEBSsm7RerCGnV4KXjt-21" value="" style="endArrow=none;html=1;rounded=0;strokeWidth=4;curved=0;" edge="1" parent="SVEBSsm7RerCGnV4KXjt-24">
          <mxGeometry width="50" height="50" relative="1" as="geometry">
            <mxPoint x="40" y="40" as="sourcePoint" />
            <mxPoint x="30" y="20" as="targetPoint" />
          </mxGeometry>
        </mxCell>
        <mxCell id="SVEBSsm7RerCGnV4KXjt-22" value="" style="endArrow=none;html=1;rounded=0;strokeWidth=4;curved=0;" edge="1" parent="SVEBSsm7RerCGnV4KXjt-24">
          <mxGeometry width="50" height="50" relative="1" as="geometry">
            <mxPoint x="80" y="40" as="sourcePoint" />
            <mxPoint x="40" y="40" as="targetPoint" />
          </mxGeometry>
        </mxCell>
        <mxCell id="SVEBSsm7RerCGnV4KXjt-23" value="" style="endArrow=none;html=1;rounded=0;strokeWidth=4;curved=0;" edge="1" parent="SVEBSsm7RerCGnV4KXjt-24">
          <mxGeometry width="50" height="50" relative="1" as="geometry">
            <mxPoint x="100" y="60" as="sourcePoint" />
            <mxPoint x="80" y="40" as="targetPoint" />
          </mxGeometry>
        </mxCell>
        <mxCell id="SVEBSsm7RerCGnV4KXjt-25" value="" style="group" vertex="1" connectable="0" parent="1">
          <mxGeometry x="320" y="120" width="120" height="80" as="geometry" />
        </mxCell>
        <mxCell id="SVEBSsm7RerCGnV4KXjt-8" value="" style="rounded=0;whiteSpace=wrap;html=1;fillColor=#dae8fc;strokeColor=#6c8ebf;" vertex="1" parent="SVEBSsm7RerCGnV4KXjt-25">
          <mxGeometry width="120" height="80" as="geometry" />
        </mxCell>
        <mxCell id="SVEBSsm7RerCGnV4KXjt-13" value="" style="endArrow=none;html=1;rounded=0;strokeWidth=4;curved=0;" edge="1" parent="SVEBSsm7RerCGnV4KXjt-25">
          <mxGeometry width="50" height="50" relative="1" as="geometry">
            <mxPoint x="40" y="20" as="sourcePoint" />
            <mxPoint x="60" y="20" as="targetPoint" />
          </mxGeometry>
        </mxCell>
        <mxCell id="SVEBSsm7RerCGnV4KXjt-14" value="" style="endArrow=none;html=1;rounded=0;strokeWidth=4;curved=0;" edge="1" parent="SVEBSsm7RerCGnV4KXjt-25">
          <mxGeometry width="50" height="50" relative="1" as="geometry">
            <mxPoint x="60" y="20" as="sourcePoint" />
            <mxPoint x="80" y="60" as="targetPoint" />
          </mxGeometry>
        </mxCell>
        <mxCell id="SVEBSsm7RerCGnV4KXjt-26" value="" style="group" vertex="1" connectable="0" parent="1">
          <mxGeometry x="160" y="120" width="120" height="80" as="geometry" />
        </mxCell>
        <mxCell id="SVEBSsm7RerCGnV4KXjt-1" value="" style="rounded=0;whiteSpace=wrap;html=1;fillColor=#dae8fc;strokeColor=#6c8ebf;" vertex="1" parent="SVEBSsm7RerCGnV4KXjt-26">
          <mxGeometry width="120" height="80" as="geometry" />
        </mxCell>
        <mxCell id="SVEBSsm7RerCGnV4KXjt-2" value="" style="endArrow=none;html=1;rounded=0;strokeWidth=4;curved=0;" edge="1" parent="SVEBSsm7RerCGnV4KXjt-26">
          <mxGeometry width="50" height="50" relative="1" as="geometry">
            <mxPoint x="30" y="59.75999999999999" as="sourcePoint" />
            <mxPoint x="50" y="59.75999999999999" as="targetPoint" />
          </mxGeometry>
        </mxCell>
        <mxCell id="SVEBSsm7RerCGnV4KXjt-3" value="" style="endArrow=none;html=1;rounded=0;strokeWidth=4;curved=0;" edge="1" parent="SVEBSsm7RerCGnV4KXjt-26">
          <mxGeometry width="50" height="50" relative="1" as="geometry">
            <mxPoint x="50" y="59.75999999999999" as="sourcePoint" />
            <mxPoint x="50" y="19.75999999999999" as="targetPoint" />
          </mxGeometry>
        </mxCell>
        <mxCell id="SVEBSsm7RerCGnV4KXjt-4" value="" style="endArrow=none;html=1;rounded=0;strokeWidth=4;curved=0;" edge="1" parent="SVEBSsm7RerCGnV4KXjt-26">
          <mxGeometry width="50" height="50" relative="1" as="geometry">
            <mxPoint x="50" y="19.75999999999999" as="sourcePoint" />
            <mxPoint x="70" y="19.75999999999999" as="targetPoint" />
          </mxGeometry>
        </mxCell>
        <mxCell id="SVEBSsm7RerCGnV4KXjt-5" value="" style="endArrow=none;html=1;rounded=0;strokeWidth=4;curved=0;" edge="1" parent="SVEBSsm7RerCGnV4KXjt-26">
          <mxGeometry width="50" height="50" relative="1" as="geometry">
            <mxPoint x="70" y="59.75999999999999" as="sourcePoint" />
            <mxPoint x="70" y="19.75999999999999" as="targetPoint" />
          </mxGeometry>
        </mxCell>
        <mxCell id="SVEBSsm7RerCGnV4KXjt-27" value="" style="endArrow=classic;html=1;rounded=0;" edge="1" parent="1">
          <mxGeometry width="50" height="50" relative="1" as="geometry">
            <mxPoint x="539.76" y="80" as="sourcePoint" />
            <mxPoint x="539.76" y="120" as="targetPoint" />
          </mxGeometry>
        </mxCell>
        <mxCell id="SVEBSsm7RerCGnV4KXjt-28" value="A, D, S, R" style="text;html=1;whiteSpace=wrap;strokeColor=none;fillColor=none;align=center;verticalAlign=middle;rounded=0;" vertex="1" parent="1">
          <mxGeometry x="510" y="50" width="60" height="30" as="geometry" />
        </mxCell>
        <mxCell id="SVEBSsm7RerCGnV4KXjt-30" value="Trigger" style="text;html=1;whiteSpace=wrap;strokeColor=none;fillColor=none;align=center;verticalAlign=middle;rounded=0;" vertex="1" parent="1">
          <mxGeometry x="550" y="400" width="60" height="30" as="geometry" />
        </mxCell>
        <mxCell id="SVEBSsm7RerCGnV4KXjt-31" value="" style="group" vertex="1" connectable="0" parent="1">
          <mxGeometry x="640" y="120" width="120" height="80" as="geometry" />
        </mxCell>
        <mxCell id="SVEBSsm7RerCGnV4KXjt-32" value="&lt;b&gt;&lt;font style=&quot;font-size: 32px;&quot;&gt;ΔΣ&lt;/font&gt;&lt;/b&gt;" style="rounded=0;whiteSpace=wrap;html=1;fillColor=#dae8fc;strokeColor=#6c8ebf;" vertex="1" parent="SVEBSsm7RerCGnV4KXjt-31">
          <mxGeometry width="120" height="80" as="geometry" />
        </mxCell>
        <mxCell id="SVEBSsm7RerCGnV4KXjt-38" style="edgeStyle=orthogonalEdgeStyle;rounded=0;orthogonalLoop=1;jettySize=auto;html=1;exitX=1;exitY=0.5;exitDx=0;exitDy=0;entryX=0;entryY=0.5;entryDx=0;entryDy=0;" edge="1" parent="1" source="SVEBSsm7RerCGnV4KXjt-19" target="SVEBSsm7RerCGnV4KXjt-32">
          <mxGeometry relative="1" as="geometry" />
        </mxCell>
        <mxCell id="SVEBSsm7RerCGnV4KXjt-43" style="edgeStyle=orthogonalEdgeStyle;rounded=0;orthogonalLoop=1;jettySize=auto;html=1;entryX=0;entryY=0.5;entryDx=0;entryDy=0;" edge="1" parent="1">
          <mxGeometry relative="1" as="geometry">
            <mxPoint x="140" y="60" as="sourcePoint" />
            <mxPoint x="160" y="59.66" as="targetPoint" />
          </mxGeometry>
        </mxCell>
        <mxCell id="SVEBSsm7RerCGnV4KXjt-44" value="SPI" style="text;html=1;whiteSpace=wrap;strokeColor=none;fillColor=none;align=center;verticalAlign=middle;rounded=0;" vertex="1" parent="1">
          <mxGeometry x="150" y="400" width="60" height="30" as="geometry" />
        </mxCell>
        <mxCell id="SVEBSsm7RerCGnV4KXjt-45" value="" style="rounded=0;whiteSpace=wrap;html=1;fillColor=#f5f5f5;fontColor=#333333;strokeColor=#666666;" vertex="1" parent="1">
          <mxGeometry x="160" y="280" width="40" height="80" as="geometry" />
        </mxCell>
        <mxCell id="SVEBSsm7RerCGnV4KXjt-46" value="" style="rounded=0;whiteSpace=wrap;html=1;fillColor=#f5f5f5;fontColor=#333333;strokeColor=#666666;" vertex="1" parent="1">
          <mxGeometry x="240" y="280" width="40" height="80" as="geometry" />
        </mxCell>
        <mxCell id="SVEBSsm7RerCGnV4KXjt-47" value="" style="rounded=0;whiteSpace=wrap;html=1;fillColor=#f5f5f5;fontColor=#333333;strokeColor=#666666;" vertex="1" parent="1">
          <mxGeometry x="320" y="280" width="40" height="80" as="geometry" />
        </mxCell>
        <mxCell id="SVEBSsm7RerCGnV4KXjt-48" value="" style="rounded=0;whiteSpace=wrap;html=1;fillColor=#f5f5f5;fontColor=#333333;strokeColor=#666666;" vertex="1" parent="1">
          <mxGeometry x="400" y="280" width="40" height="80" as="geometry" />
        </mxCell>
        <mxCell id="SVEBSsm7RerCGnV4KXjt-49" value="" style="rounded=0;whiteSpace=wrap;html=1;fillColor=#f5f5f5;fontColor=#333333;strokeColor=#666666;" vertex="1" parent="1">
          <mxGeometry x="480" y="280" width="40" height="80" as="geometry" />
        </mxCell>
        <mxCell id="SVEBSsm7RerCGnV4KXjt-50" value="" style="rounded=0;whiteSpace=wrap;html=1;fillColor=#f5f5f5;fontColor=#333333;strokeColor=#666666;" vertex="1" parent="1">
          <mxGeometry x="560" y="280" width="40" height="80" as="geometry" />
        </mxCell>
        <mxCell id="SVEBSsm7RerCGnV4KXjt-51" value="" style="rounded=0;whiteSpace=wrap;html=1;fillColor=#f5f5f5;fontColor=#333333;strokeColor=#666666;" vertex="1" parent="1">
          <mxGeometry x="640" y="280" width="40" height="80" as="geometry" />
        </mxCell>
        <mxCell id="SVEBSsm7RerCGnV4KXjt-52" value="" style="rounded=0;whiteSpace=wrap;html=1;fillColor=#f5f5f5;fontColor=#333333;strokeColor=#666666;" vertex="1" parent="1">
          <mxGeometry x="720" y="280" width="40" height="80" as="geometry" />
        </mxCell>
        <mxCell id="SVEBSsm7RerCGnV4KXjt-53" style="edgeStyle=orthogonalEdgeStyle;rounded=0;orthogonalLoop=1;jettySize=auto;html=1;endArrow=none;endFill=0;" edge="1" parent="1">
          <mxGeometry relative="1" as="geometry">
            <mxPoint x="180" y="400" as="targetPoint" />
            <mxPoint x="140" y="60" as="sourcePoint" />
            <Array as="points">
              <mxPoint x="140" y="60" />
              <mxPoint x="140" y="240" />
              <mxPoint x="180" y="240" />
            </Array>
          </mxGeometry>
        </mxCell>
        <mxCell id="SVEBSsm7RerCGnV4KXjt-54" value="Audio" style="text;html=1;whiteSpace=wrap;strokeColor=none;fillColor=none;align=center;verticalAlign=middle;rounded=0;" vertex="1" parent="1">
          <mxGeometry x="760" y="400" width="60" height="30" as="geometry" />
        </mxCell>
        <mxCell id="SVEBSsm7RerCGnV4KXjt-39" style="edgeStyle=orthogonalEdgeStyle;rounded=0;orthogonalLoop=1;jettySize=auto;html=1;exitX=1;exitY=0.5;exitDx=0;exitDy=0;" edge="1" parent="1" target="SVEBSsm7RerCGnV4KXjt-65">
          <mxGeometry relative="1" as="geometry">
            <mxPoint x="760" y="159.66" as="sourcePoint" />
            <mxPoint x="740" y="400" as="targetPoint" />
            <Array as="points">
              <mxPoint x="780" y="160" />
              <mxPoint x="780" y="240" />
              <mxPoint x="740" y="240" />
              <mxPoint x="740" y="400" />
              <mxPoint x="840" y="400" />
              <mxPoint x="840" y="140" />
            </Array>
          </mxGeometry>
        </mxCell>
        <mxCell id="SVEBSsm7RerCGnV4KXjt-55" value="" style="rounded=0;whiteSpace=wrap;html=1;fillColor=#f5f5f5;fontColor=#333333;strokeColor=#666666;" vertex="1" parent="1">
          <mxGeometry x="160" y="-80" width="40" height="80" as="geometry" />
        </mxCell>
        <mxCell id="SVEBSsm7RerCGnV4KXjt-56" value="" style="rounded=0;whiteSpace=wrap;html=1;fillColor=#f5f5f5;fontColor=#333333;strokeColor=#666666;" vertex="1" parent="1">
          <mxGeometry x="240" y="-80" width="40" height="80" as="geometry" />
        </mxCell>
        <mxCell id="SVEBSsm7RerCGnV4KXjt-57" value="" style="rounded=0;whiteSpace=wrap;html=1;fillColor=#f5f5f5;fontColor=#333333;strokeColor=#666666;" vertex="1" parent="1">
          <mxGeometry x="320" y="-80" width="40" height="80" as="geometry" />
        </mxCell>
        <mxCell id="SVEBSsm7RerCGnV4KXjt-58" value="" style="rounded=0;whiteSpace=wrap;html=1;fillColor=#f5f5f5;fontColor=#333333;strokeColor=#666666;" vertex="1" parent="1">
          <mxGeometry x="400" y="-80" width="40" height="80" as="geometry" />
        </mxCell>
        <mxCell id="SVEBSsm7RerCGnV4KXjt-59" value="" style="rounded=0;whiteSpace=wrap;html=1;fillColor=#f5f5f5;fontColor=#333333;strokeColor=#666666;" vertex="1" parent="1">
          <mxGeometry x="480" y="-80" width="40" height="80" as="geometry" />
        </mxCell>
        <mxCell id="SVEBSsm7RerCGnV4KXjt-60" value="" style="rounded=0;whiteSpace=wrap;html=1;fillColor=#f5f5f5;fontColor=#333333;strokeColor=#666666;" vertex="1" parent="1">
          <mxGeometry x="560" y="-80" width="40" height="80" as="geometry" />
        </mxCell>
        <mxCell id="SVEBSsm7RerCGnV4KXjt-61" value="" style="rounded=0;whiteSpace=wrap;html=1;fillColor=#f5f5f5;fontColor=#333333;strokeColor=#666666;" vertex="1" parent="1">
          <mxGeometry x="640" y="-80" width="40" height="80" as="geometry" />
        </mxCell>
        <mxCell id="SVEBSsm7RerCGnV4KXjt-62" value="" style="rounded=0;whiteSpace=wrap;html=1;fillColor=#f5f5f5;fontColor=#333333;strokeColor=#666666;" vertex="1" parent="1">
          <mxGeometry x="720" y="-80" width="40" height="80" as="geometry" />
        </mxCell>
        <mxCell id="SVEBSsm7RerCGnV4KXjt-29" style="edgeStyle=orthogonalEdgeStyle;rounded=0;orthogonalLoop=1;jettySize=auto;html=1;exitX=0.5;exitY=0;exitDx=0;exitDy=0;" edge="1" parent="1" source="SVEBSsm7RerCGnV4KXjt-30">
          <mxGeometry relative="1" as="geometry">
            <mxPoint x="539.76" y="200" as="targetPoint" />
            <mxPoint x="540" y="240" as="sourcePoint" />
            <Array as="points">
              <mxPoint x="580" y="240" />
              <mxPoint x="540" y="240" />
            </Array>
          </mxGeometry>
        </mxCell>
        <mxCell id="SVEBSsm7RerCGnV4KXjt-64" value="" style="group" vertex="1" connectable="0" parent="1">
          <mxGeometry x="880" width="160" height="280" as="geometry" />
        </mxCell>
        <mxCell id="SVEBSsm7RerCGnV4KXjt-68" style="edgeStyle=orthogonalEdgeStyle;rounded=0;orthogonalLoop=1;jettySize=auto;html=1;exitX=1;exitY=0.5;exitDx=0;exitDy=0;" edge="1" parent="SVEBSsm7RerCGnV4KXjt-64" source="SVEBSsm7RerCGnV4KXjt-65">
          <mxGeometry relative="1" as="geometry">
            <mxPoint x="240" y="139.66666666666697" as="targetPoint" />
          </mxGeometry>
        </mxCell>
        <mxCell id="SVEBSsm7RerCGnV4KXjt-65" value="" style="rounded=0;whiteSpace=wrap;html=1;fillColor=#dae8fc;strokeColor=#6c8ebf;" vertex="1" parent="SVEBSsm7RerCGnV4KXjt-64">
          <mxGeometry width="160" height="280" as="geometry" />
        </mxCell>
        <mxCell id="SVEBSsm7RerCGnV4KXjt-66" value="" style="endArrow=none;html=1;rounded=0;strokeWidth=4;curved=0;" edge="1" parent="SVEBSsm7RerCGnV4KXjt-64">
          <mxGeometry width="50" height="50" relative="1" as="geometry">
            <mxPoint x="53.33333333333333" y="70" as="sourcePoint" />
            <mxPoint x="80" y="70" as="targetPoint" />
          </mxGeometry>
        </mxCell>
        <mxCell id="SVEBSsm7RerCGnV4KXjt-67" value="" style="endArrow=none;html=1;rounded=0;strokeWidth=4;curved=0;" edge="1" parent="SVEBSsm7RerCGnV4KXjt-64">
          <mxGeometry width="50" height="50" relative="1" as="geometry">
            <mxPoint x="80" y="70" as="sourcePoint" />
            <mxPoint x="106.66666666666666" y="210" as="targetPoint" />
          </mxGeometry>
        </mxCell>
        <mxCell id="SVEBSsm7RerCGnV4KXjt-69" value="" style="shape=image;verticalLabelPosition=bottom;labelBackgroundColor=default;verticalAlign=top;aspect=fixed;imageAspect=0;editableCssRules=.*;image=data:image/svg+xml,PHN2ZyB4bWxucz0iaHR0cDovL3d3dy53My5vcmcvMjAwMC9zdmciIHZpZXdCb3g9IjMyIDkxLjEwNzUxMzQyNzczNDM4IDYwOCA0NTcuODQzMjMxMjAxMTcxOSIgd2lkdGg9IjYwOCIgaGVpZ2h0PSI0NTcuODQzMjMxMjAxMTcxOSI+PHBhdGggZD0iTTUzMy42IDk2LjVDNTIzLjMgODguMSA1MDguMiA4OS43IDQ5OS44IDEwMEM0OTEuNCAxMTAuMyA0OTMgMTI1LjQgNTAzLjMgMTMzLjhDNTU3LjUgMTc3LjggNTkyIDI0NC44IDU5MiAzMjBDNTkyIDM5NS4yIDU1Ny41IDQ2Mi4yIDUwMy4zIDUwNi4zQzQ5MyA1MTQuNyA0OTEuNSA1MjkuOCA0OTkuOCA1NDAuMUM1MDguMSA1NTAuNCA1MjMuMyA1NTEuOSA1MzMuNiA1NDMuNkM1OTguNSA0OTAuNyA2NDAgNDEwLjIgNjQwIDMyMEM2NDAgMjI5LjggNTk4LjUgMTQ5LjIgNTMzLjYgOTYuNXpNNDczLjEgMTcxQzQ2Mi44IDE2Mi42IDQ0Ny43IDE2NC4yIDQzOS4zIDE3NC41QzQzMC45IDE4NC44IDQzMi41IDE5OS45IDQ0Mi44IDIwOC4zQzQ3NS4zIDIzNC43IDQ5NiAyNzQuOSA0OTYgMzIwQzQ5NiAzNjUuMSA0NzUuMyA0MDUuMyA0NDIuOCA0MzEuOEM0MzIuNSA0NDAuMiA0MzEgNDU1LjMgNDM5LjMgNDY1LjZDNDQ3LjYgNDc1LjkgNDYyLjggNDc3LjQgNDczLjEgNDY5LjFDNTE2LjMgNDMzLjkgNTQ0IDM4MC4yIDU0NCAzMjAuMUM1NDQgMjYwIDUxNi4zIDIwNi4zIDQ3My4xIDE3MS4xek00MTIuNiAyNDUuNUM0MDIuMyAyMzcuMSAzODcuMiAyMzguNyAzNzguOCAyNDlDMzcwLjQgMjU5LjMgMzcyIDI3NC40IDM4Mi4zIDI4Mi44QzM5My4xIDI5MS42IDQwMCAzMDUgNDAwIDMyMEM0MDAgMzM1IDM5My4xIDM0OC40IDM4Mi4zIDM1Ny4zQzM3MiAzNjUuNyAzNzAuNSAzODAuOCAzNzguOCAzOTEuMUMzODcuMSA0MDEuNCA0MDIuMyA0MDIuOSA0MTIuNiAzOTQuNkM0MzQuMSAzNzYuOSA0NDggMzUwLjEgNDQ4IDMyMEM0NDggMjg5LjkgNDM0LjEgMjYzLjEgNDEyLjYgMjQ1LjV6TTgwIDQxNkwxMjggNDE2TDI2Mi4xIDUzNS4yQzI2OC41IDU0MC45IDI3Ni43IDU0NCAyODUuMiA1NDRDMzA0LjQgNTQ0IDMyMCA1MjguNCAzMjAgNTA5LjJMMzIwIDEzMC44QzMyMCAxMTEuNiAzMDQuNCA5NiAyODUuMiA5NkMyNzYuNyA5NiAyNjguNSA5OS4xIDI2Mi4xIDEwNC44TDEyOCAyMjRMODAgMjI0QzUzLjUgMjI0IDMyIDI0NS41IDMyIDI3MkwzMiAzNjhDMzIgMzk0LjUgNTMuNSA0MTYgODAgNDE2eiIvPjwvc3ZnPg==;" vertex="1" parent="1">
          <mxGeometry x="1140" y="50" width="244.93" height="184.5" as="geometry" />
        </mxCell>
      </root>
    </mxGraphModel>
  </diagram>
</mxfile>
